<?xml version="1.0" encoding="UTF-8" standalone="no"?>
<!-- Created with Inkscape (http://www.inkscape.org/) -->

<svg
   xmlns:dc="http://purl.org/dc/elements/1.1/"
   xmlns:cc="http://creativecommons.org/ns#"
   xmlns:rdf="http://www.w3.org/1999/02/22-rdf-syntax-ns#"
   xmlns:svg="http://www.w3.org/2000/svg"
   xmlns="http://www.w3.org/2000/svg"
   xmlns:xlink="http://www.w3.org/1999/xlink"
   version="1.1"
   width="24"
   height="24"
   id="svg2">
  <defs
     id="defs4">
    <linearGradient
       id="linearGradient3858">
      <stop
         id="stop3860"
         style="stop-color:#ff3f3f;stop-opacity:1"
         offset="0" />
      <stop
         id="stop3862"
         style="stop-color:#df0000;stop-opacity:1"
         offset="1" />
    </linearGradient>
    <linearGradient
       id="linearGradient3850">
      <stop
         id="stop3852"
         style="stop-color:#e00000;stop-opacity:1"
         offset="0" />
      <stop
         id="stop3854"
         style="stop-color:#bf0000;stop-opacity:1"
         offset="1" />
    </linearGradient>
    <linearGradient
       id="linearGradient3812">
      <stop
         id="stop3814"
         style="stop-color:#ffffff;stop-opacity:1"
         offset="0" />
      <stop
         id="stop3816"
         style="stop-color:#ffffff;stop-opacity:0"
         offset="1" />
    </linearGradient>
    <radialGradient
       cx="13.4375"
       cy="15.375"
       r="10.8125"
       fx="13.4375"
       fy="15.375"
       id="radialGradient3840"
       xlink:href="#linearGradient3812"
       gradientUnits="userSpaceOnUse"
       gradientTransform="matrix(1,0,0,0.55491329,0,6.8432081)" />
    <linearGradient
       x1="3"
       y1="1040.3622"
       x2="21"
       y2="1040.3622"
       id="linearGradient3856"
       xlink:href="#linearGradient3850"
       gradientUnits="userSpaceOnUse" />
    <linearGradient
       x1="3"
       y1="1040.3622"
       x2="21"
       y2="1040.3622"
       id="linearGradient3864"
       xlink:href="#linearGradient3858"
       gradientUnits="userSpaceOnUse" />
  </defs>
  <metadata
     id="metadata7">
    <rdf:RDF>
      <cc:Work
         rdf:about="">
        <dc:format>image/svg+xml</dc:format>
        <dc:type
           rdf:resource="http://purl.org/dc/dcmitype/StillImage" />
        <dc:title></dc:title>
      </cc:Work>
    </rdf:RDF>
  </metadata>
  <g
     transform="translate(0,-1028.3622)"
     id="layer1">
    <path
       d="m 5.7829957,1030.8622 12.4340083,0 c 1.81878,0 3.282996,1.4642 3.282996,3.283 l 0,12.434 c 0,1.8188 -1.464216,3.283 -3.282996,3.283 l -12.4340083,0 C 3.9642161,1049.8622 2.5,1048.398 2.5,1046.5792 l 0,-12.434 c 0,-1.8188 1.4642161,-3.283 3.2829957,-3.283 z"
       id="path3874"
       style="fill:#7f0000;fill-opacity:1;stroke:#7f0000;stroke-width:1;stroke-linecap:round;stroke-miterlimit:4;stroke-opacity:1" />
    <path
       d="m 5.8123779,1031.8622 12.3752441,0 c 1.281057,0 2.312378,1.0313 2.312378,2.3124 l 0,12.3752 c 0,1.2811 -1.031321,2.3124 -2.312378,2.3124 l -12.3752441,0 C 4.5313206,1048.8622 3.5,1047.8309 3.5,1046.5498 l 0,-12.3752 c 0,-1.2811 1.0313206,-2.3124 2.3123779,-2.3124 z"
       id="path3838"
       style="fill:url(#linearGradient3856);fill-opacity:1;stroke:url(#linearGradient3864);stroke-width:1;stroke-linecap:round;stroke-miterlimit:4;stroke-opacity:1" />
    <rect
       width="3"
       height="12"
       ry="0"
       x="-1041.8622"
       y="6"
       transform="matrix(0,-1,1,0,0,0)"
       id="rect3844"
       style="fill:#efefef;fill-opacity:1;stroke:none" />
    <rect
       width="3"
       height="12"
       ry="0"
       x="508.28879"
       y="-912.9801"
       transform="matrix(-0.8660254,0.5,-0.5,-0.8660254,0,0)"
       id="rect3876"
       style="fill:#efefef;fill-opacity:1;stroke:none" />
    <rect
       width="3"
       height="12"
       ry="0"
       x="529.07343"
       y="888.9801"
       transform="matrix(0.8660254,0.5,-0.5,0.8660254,0,0)"
       id="rect3878"
       style="fill:#efefef;fill-opacity:1;stroke:none" />
    <path
       d="m 24.25,15.375 a 10.8125,6 0 1 1 -21.625,0 10.8125,6 0 1 1 21.625,0 z"
       transform="matrix(0.3699422,0,0,0.66666667,3.0289017,1026.1122)"
       id="path3802"
       style="fill:url(#radialGradient3840);fill-opacity:1;stroke:none" />
  </g>
</svg>
