<?xml version="1.0" encoding="UTF-8" standalone="no"?>
<!-- Created with Inkscape (http://www.inkscape.org/) -->

<svg
   xmlns:dc="http://purl.org/dc/elements/1.1/"
   xmlns:cc="http://creativecommons.org/ns#"
   xmlns:rdf="http://www.w3.org/1999/02/22-rdf-syntax-ns#"
   xmlns:svg="http://www.w3.org/2000/svg"
   xmlns="http://www.w3.org/2000/svg"
   xmlns:xlink="http://www.w3.org/1999/xlink"
   version="1.1"
   width="24"
   height="24"
   id="svg2">
  <defs
     id="defs4">
    <linearGradient
       id="linearGradient3858">
      <stop
         id="stop3860"
         style="stop-color:#ff3f3f;stop-opacity:1"
         offset="0" />
      <stop
         id="stop3862"
         style="stop-color:#df0000;stop-opacity:1"
         offset="1" />
    </linearGradient>
    <linearGradient
       id="linearGradient3850">
      <stop
         id="stop3852"
         style="stop-color:#e00000;stop-opacity:1"
         offset="0" />
      <stop
         id="stop3854"
         style="stop-color:#bf0000;stop-opacity:1"
         offset="1" />
    </linearGradient>
    <linearGradient
       id="linearGradient3812">
      <stop
         id="stop3814"
         style="stop-color:#ffffff;stop-opacity:1"
         offset="0" />
      <stop
         id="stop3816"
         style="stop-color:#ffffff;stop-opacity:0"
         offset="1" />
    </linearGradient>
    <radialGradient
       cx="13.4375"
       cy="15.375"
       r="10.8125"
       fx="13.4375"
       fy="15.375"
       id="radialGradient3840"
       xlink:href="#linearGradient3812"
       gradientUnits="userSpaceOnUse"
       gradientTransform="matrix(1,0,0,0.55491329,0,6.8432081)" />
    <linearGradient
       x1="3"
       y1="1040.3622"
       x2="21"
       y2="1040.3622"
       id="linearGradient3856"
       xlink:href="#linearGradient3850"
       gradientUnits="userSpaceOnUse" />
    <linearGradient
       x1="3"
       y1="1040.3622"
       x2="21"
       y2="1040.3622"
       id="linearGradient3864"
       xlink:href="#linearGradient3858"
       gradientUnits="userSpaceOnUse" />
    <radialGradient
       cx="13.4375"
       cy="15.375"
       r="10.8125"
       fx="13.4375"
       fy="15.375"
       id="radialGradient4909"
       xlink:href="#linearGradient3812"
       gradientUnits="userSpaceOnUse"
       gradientTransform="matrix(0.3699422,0,0,0.3699422,3.0289017,2.3121388)" />
    <linearGradient
       x1="3"
       y1="1040.3622"
       x2="21"
       y2="1040.3622"
       id="linearGradient4915"
       xlink:href="#linearGradient3850"
       gradientUnits="userSpaceOnUse"
       gradientTransform="translate(0,-1028.3622)" />
    <linearGradient
       x1="3"
       y1="1040.3622"
       x2="21"
       y2="1040.3622"
       id="linearGradient4917"
       xlink:href="#linearGradient3858"
       gradientUnits="userSpaceOnUse"
       gradientTransform="translate(0,-1028.3622)" />
  </defs>
  <metadata
     id="metadata7">
    <rdf:RDF>
      <cc:Work
         rdf:about="">
        <dc:format>image/svg+xml</dc:format>
        <dc:type
           rdf:resource="http://purl.org/dc/dcmitype/StillImage" />
        <dc:title></dc:title>
      </cc:Work>
    </rdf:RDF>
  </metadata>
  <path
     d="m 5.7829957,2.5 12.4340083,0 C 20.035784,2.5 21.5,3.9642 21.5,5.783 l 0,12.434 c 0,1.8188 -1.464216,3.283 -3.282996,3.283 l -12.4340083,0 C 3.9642161,21.5 2.5,20.0358 2.5,18.217 L 2.5,5.783 C 2.5,3.9642 3.9642161,2.5 5.7829957,2.5 z"
     id="path3874"
     style="fill:#7f0000;fill-opacity:1;stroke:#7f0000;stroke-width:1;stroke-linecap:round;stroke-miterlimit:4;stroke-opacity:1" />
  <path
     d="m 5.8123779,3.5 12.3752441,0 C 19.468679,3.5 20.5,4.5313 20.5,5.8124 l 0,12.3752 c 0,1.2811 -1.031321,2.3124 -2.312378,2.3124 l -12.3752441,0 C 4.5313206,20.5 3.5,19.4687 3.5,18.1876 L 3.5,5.8124 C 3.5,4.5313 4.5313206,3.5 5.8123779,3.5 z"
     id="path3838"
     style="fill:url(#linearGradient4915);fill-opacity:1;stroke:url(#linearGradient4917);stroke-width:1;stroke-linecap:round;stroke-miterlimit:4;stroke-opacity:1" />
  <path
     d="M 7.0824313,7.0297499 C 5.6397314,8.47245 5.6389814,10.81513 7.0814313,12.25782 c 0.95611,0.95611 2.30703,1.27813 3.5294997,0.96698 l 0.68952,0.6895 1.22713,0.15038 0.15188,1.22864 1.22713,0.15038 0.15113,1.22788 1.22863,0.15189 0.15039,1.22713 2.18131,-0.18271 0.1752,-0.0144 0.0331,-0.37747 0.1737,-1.97228 -0.68274,-0.68273 -0.68124,-0.68124 -0.68199,-0.68199 -0.68124,-0.68124 -0.68199,-0.68198 -0.68199,-0.68199 -0.68198,-0.682 c 0.38812,-1.26605 0.0822,-2.6984 -0.91885,-3.6994301 -1.44269,-1.4427 -3.7831197,-1.4442 -5.2258197,-0.002 z m 0.74891,0.7519101 c 0.66209,-0.6620801 1.61035,-0.7897701 2.11665,-0.2834701 C 10.454291,8.0045 10.327361,8.9535 9.6652713,9.61559 c -0.6621,0.66209 -1.61034,0.78827 -2.11665,0.28197 -0.5063,-0.5063 -0.37938,-1.45381 0.28272,-2.1159 z"
     id="path6625"
     style="color:#000000;fill:#efefef;fill-opacity:1;fill-rule:nonzero;stroke:none;stroke-width:40;marker:none;visibility:visible;display:inline;overflow:visible;enable-background:accumulate" />
  <path
     d="m 12,8.0000001 a 4,4 0 0 1 -8,0 4,4 0 1 1 8,0 z"
     id="path3802"
     style="fill:url(#radialGradient4909);fill-opacity:1;stroke:none" />
</svg>
