<?xml version="1.0" encoding="UTF-8" standalone="no"?>
<!-- Created with Inkscape (http://www.inkscape.org/) -->

<svg
   xmlns:dc="http://purl.org/dc/elements/1.1/"
   xmlns:cc="http://creativecommons.org/ns#"
   xmlns:rdf="http://www.w3.org/1999/02/22-rdf-syntax-ns#"
   xmlns:svg="http://www.w3.org/2000/svg"
   xmlns="http://www.w3.org/2000/svg"
   xmlns:xlink="http://www.w3.org/1999/xlink"
   version="1.1"
   width="24"
   height="24"
   id="svg2">
  <defs
     id="defs4">
    <linearGradient
       id="linearGradient3858">
      <stop
         id="stop3860"
         style="stop-color:#ff3f3f;stop-opacity:1"
         offset="0" />
      <stop
         id="stop3862"
         style="stop-color:#df0000;stop-opacity:1"
         offset="1" />
    </linearGradient>
    <linearGradient
       id="linearGradient3850">
      <stop
         id="stop3852"
         style="stop-color:#e00000;stop-opacity:1"
         offset="0" />
      <stop
         id="stop3854"
         style="stop-color:#bf0000;stop-opacity:1"
         offset="1" />
    </linearGradient>
    <linearGradient
       id="linearGradient3812">
      <stop
         id="stop3814"
         style="stop-color:#ffffff;stop-opacity:1"
         offset="0" />
      <stop
         id="stop3816"
         style="stop-color:#ffffff;stop-opacity:0"
         offset="1" />
    </linearGradient>
    <radialGradient
       cx="13.4375"
       cy="15.375"
       r="10.8125"
       fx="13.4375"
       fy="15.375"
       id="radialGradient3840"
       xlink:href="#linearGradient3812"
       gradientUnits="userSpaceOnUse"
       gradientTransform="matrix(1,0,0,0.55491329,0,6.8432081)" />
    <linearGradient
       x1="3"
       y1="1040.3622"
       x2="21"
       y2="1040.3622"
       id="linearGradient3856"
       xlink:href="#linearGradient3850"
       gradientUnits="userSpaceOnUse" />
    <linearGradient
       x1="3"
       y1="1040.3622"
       x2="21"
       y2="1040.3622"
       id="linearGradient3864"
       xlink:href="#linearGradient3858"
       gradientUnits="userSpaceOnUse" />
    <radialGradient
       cx="13.4375"
       cy="15.375"
       r="10.8125"
       fx="13.4375"
       fy="15.375"
       id="radialGradient4909"
       xlink:href="#linearGradient3812"
       gradientUnits="userSpaceOnUse"
       gradientTransform="matrix(0.3699422,0,0,0.3699422,3.0289017,2.3121388)" />
    <linearGradient
       x1="3"
       y1="1040.3622"
       x2="21"
       y2="1040.3622"
       id="linearGradient4915"
       xlink:href="#linearGradient3850"
       gradientUnits="userSpaceOnUse"
       gradientTransform="translate(0,-1028.3622)" />
    <linearGradient
       x1="3"
       y1="1040.3622"
       x2="21"
       y2="1040.3622"
       id="linearGradient4917"
       xlink:href="#linearGradient3858"
       gradientUnits="userSpaceOnUse"
       gradientTransform="translate(0,-1028.3622)" />
  </defs>
  <metadata
     id="metadata7">
    <rdf:RDF>
      <cc:Work
         rdf:about="">
        <dc:format>image/svg+xml</dc:format>
        <dc:type
           rdf:resource="http://purl.org/dc/dcmitype/StillImage" />
        <dc:title></dc:title>
      </cc:Work>
    </rdf:RDF>
  </metadata>
  <path
     d="m 5.7829957,2.5 12.4340083,0 C 20.035784,2.5 21.5,3.9642 21.5,5.783 l 0,12.434 c 0,1.8188 -1.464216,3.283 -3.282996,3.283 l -12.4340083,0 C 3.9642161,21.5 2.5,20.0358 2.5,18.217 L 2.5,5.783 C 2.5,3.9642 3.9642161,2.5 5.7829957,2.5 z"
     id="path3874"
     style="fill:#7f0000;fill-opacity:1;stroke:#7f0000;stroke-width:1;stroke-linecap:round;stroke-miterlimit:4;stroke-opacity:1" />
  <path
     d="m 5.8123779,3.5 12.3752441,0 C 19.468679,3.5 20.5,4.5313 20.5,5.8124 l 0,12.3752 c 0,1.2811 -1.031321,2.3124 -2.312378,2.3124 l -12.3752441,0 C 4.5313206,20.5 3.5,19.4687 3.5,18.1876 L 3.5,5.8124 C 3.5,4.5313 4.5313206,3.5 5.8123779,3.5 z"
     id="path3838"
     style="fill:url(#linearGradient4915);fill-opacity:1;stroke:url(#linearGradient4917);stroke-width:1;stroke-linecap:round;stroke-miterlimit:4;stroke-opacity:1" />
  <path
     d="m 16.663299,6.7523032 c -0.24179,0.0056 -0.494321,0.1089299 -0.745459,0.2915472 L 7.8798521,13.976193 6,17.248 9.5328252,15.822658 17.603224,9.0522866 C 18.513982,8.1585132 17.711061,6.7280984 16.663299,6.7523032 z"
     id="path2960"
     style="color:#000000;fill:#efefef;fill-opacity:1;fill-rule:evenodd;stroke:none;stroke-width:0.99999952;marker:none;visibility:visible;display:inline;overflow:visible" />
  <path
     d="m 12,8.0000001 a 4,4 0 0 1 -8,0 4,4 0 1 1 8,0 z"
     id="path3802"
     style="fill:url(#radialGradient4909);fill-opacity:1;stroke:none" />
</svg>
