<?xml version="1.0" encoding="UTF-8" standalone="no"?>
<!-- Created with Inkscape (http://www.inkscape.org/) -->

<svg
   xmlns:dc="http://purl.org/dc/elements/1.1/"
   xmlns:cc="http://creativecommons.org/ns#"
   xmlns:rdf="http://www.w3.org/1999/02/22-rdf-syntax-ns#"
   xmlns:svg="http://www.w3.org/2000/svg"
   xmlns="http://www.w3.org/2000/svg"
   version="1.1"
   width="48"
   height="48"
   id="svg3184">
  <defs
     id="defs3186" />
  <metadata
     id="metadata3189">
    <rdf:RDF>
      <cc:Work
         rdf:about="">
        <dc:format>image/svg+xml</dc:format>
        <dc:type
           rdf:resource="http://purl.org/dc/dcmitype/StillImage" />
        <dc:title></dc:title>
      </cc:Work>
    </rdf:RDF>
  </metadata>
  <g
     transform="translate(0,-1004.3622)"
     id="layer1">
    <path
       d="m 0,1006.386 c 0,15.3255 0,30.6509 0,45.9762 16,10e-5 32,0 48,0 0,-15.9998 0,-31.9999 0,-47.9999 -16,0 -32,0 -48,0 l 0,1.0118 0,1.0119 z"
       id="rect3192"
       style="fill:#a5cd38;fill-opacity:1;stroke:#000000;stroke-width:0;stroke-linecap:round;stroke-miterlimit:4;stroke-opacity:1;stroke-dasharray:none" />
    <g
       transform="matrix(0.70710678,-0.70710678,0.70710678,0.70710678,-720.13331,318.17124)"
       id="g4004">
      <rect
         width="3"
         height="13"
         x="-1029.8622"
         y="-30.5"
         transform="matrix(0,-1,-1,0,0,0)"
         id="rect3976-1"
         style="fill:#000000;fill-opacity:1;stroke:#000000;stroke-width:3;stroke-linecap:round;stroke-miterlimit:4;stroke-opacity:1;stroke-dasharray:none" />
      <rect
         width="3"
         height="19"
         x="-25.5"
         y="1028.8622"
         transform="scale(-1,1)"
         id="rect3976"
         style="fill:#000000;fill-opacity:1;stroke:#000000;stroke-width:3;stroke-linecap:round;stroke-miterlimit:4;stroke-opacity:1;stroke-dasharray:none" />
      <path
         d="m 37.123106,25.902912 a 12.374369,14.773481 0 1 1 -24.748737,0 12.374369,14.773481 0 1 1 24.748737,0 z"
         transform="matrix(1.2121831,0,0,1.0153328,-6.000001,1002.0621)"
         id="path3972"
         style="fill:none;stroke:#000000;stroke-width:5.40832615;stroke-linecap:round;stroke-miterlimit:4;stroke-opacity:1;stroke-dasharray:none" />
    </g>
  </g>
</svg>
