<?xml version="1.0" encoding="UTF-8" standalone="no"?>
<!-- Created with Inkscape (http://www.inkscape.org/) -->

<svg
   xmlns:dc="http://purl.org/dc/elements/1.1/"
   xmlns:cc="http://creativecommons.org/ns#"
   xmlns:rdf="http://www.w3.org/1999/02/22-rdf-syntax-ns#"
   xmlns:svg="http://www.w3.org/2000/svg"
   xmlns="http://www.w3.org/2000/svg"
   version="1.1"
   width="16"
   height="16"
   id="svg2">
  <defs
     id="defs4" />
  <metadata
     id="metadata7">
    <rdf:RDF>
      <cc:Work
         rdf:about="">
        <dc:format>image/svg+xml</dc:format>
        <dc:type
           rdf:resource="http://purl.org/dc/dcmitype/StillImage" />
        <dc:title></dc:title>
      </cc:Work>
    </rdf:RDF>
  </metadata>
  <path
     d="M 7.5,2.5064 C 5.561,2.5064 4,4.0674 4,6.0064 4,6.0584 3.99775,6.1109 4,6.1626 3.7649134,6.0796 3.5136413,6.0064 3.25,6.0064 2.0073593,6.0064 1,7.0137 1,8.2564 c 0,1.1182 0.8061163,2.0442 1.875,2.2187 l 1.5625,2.6875 c 0.183395,0.3177 0.5886005,0.4334 0.90625,0.25 l 1.4375,-0.8437 c 0.02864,-0.017 0.037214,-0.043 0.0625,-0.062 l 2.3125,0 c 0.025286,0.02 0.03386,0.046 0.0625,0.062 l 1.4375,0.8437 c 0.317649,0.1834 0.722855,0.068 0.90625,-0.25 L 13.125,10.4751 C 14.193883,10.3006 15,9.3746 15,8.2564 c 0,-1.2427 -1.00736,-2.25 -2.25,-2.25 -0.263641,0 -0.514913,0.073 -0.75,0.1562 0.0022,-0.052 0,-0.1039 0,-0.1562 0,-1.939 -1.561,-3.5 -3.5,-3.5 l -1,0 z"
     id="rect3802"
     style="fill:#004d99;fill-opacity:1;stroke:#004d99;stroke-opacity:1" />
  <text
     x="4.7600002"
     y="11.310041"
     id="text3822"
     xml:space="preserve"
     style="font-size:28px;font-style:normal;font-weight:normal;line-height:125%;letter-spacing:0px;word-spacing:0px;fill:#000000;fill-opacity:1;stroke:none;font-family:Sans"><tspan
       x="4.7600002"
       y="11.310041"
       id="tspan3824"
       style="font-size:10px;font-style:normal;font-variant:normal;font-weight:normal;font-stretch:normal;fill:#ffffff;fill-opacity:1;font-family:MgOpen Canonica;-inkscape-font-specification:MgOpen Canonica">R</tspan></text>
</svg>
