<?xml version="1.0" encoding="UTF-8" standalone="no"?>
<!-- Created with Inkscape (http://www.inkscape.org/) -->

<svg
   xmlns:dc="http://purl.org/dc/elements/1.1/"
   xmlns:cc="http://creativecommons.org/ns#"
   xmlns:rdf="http://www.w3.org/1999/02/22-rdf-syntax-ns#"
   xmlns:svg="http://www.w3.org/2000/svg"
   xmlns="http://www.w3.org/2000/svg"
   version="1.1"
   width="16"
   height="16"
   id="svg3948">
  <defs
     id="defs3950" />
  <metadata
     id="metadata3953">
    <rdf:RDF>
      <cc:Work
         rdf:about="">
        <dc:format>image/svg+xml</dc:format>
        <dc:type
           rdf:resource="http://purl.org/dc/dcmitype/StillImage" />
        <dc:title></dc:title>
      </cc:Work>
    </rdf:RDF>
  </metadata>
  <g
     transform="translate(0,-1036.3622)"
     id="layer1">
    <path
       d="m 9.2807765,9.4971428 a 2.7463522,2.588516 0 1 1 -5.4927044,0 2.7463522,2.588516 0 1 1 5.4927044,0 z"
       transform="matrix(0.9102984,0,0,0.9658062,-1.948276,1038.1898)"
       id="path3956"
       style="fill:#ffffff;fill-opacity:1;stroke:#000000;stroke-width:1.06650543;stroke-linecap:round;stroke-miterlimit:4;stroke-opacity:1;stroke-dasharray:none" />
    <path
       d="m 9.2807765,9.4971428 a 2.7463522,2.588516 0 1 1 -5.4927044,0 2.7463522,2.588516 0 1 1 5.4927044,0 z"
       transform="matrix(0.9102984,0,0,0.9658062,5.051724,1038.1898)"
       id="path4466"
       style="fill:#ffffff;fill-opacity:1;stroke:#000000;stroke-width:1.06650543;stroke-linecap:round;stroke-miterlimit:4;stroke-opacity:1;stroke-dasharray:none" />
    <path
       d="m 6,1047.3622 3,0"
       id="path4470"
       style="fill:none;stroke:#000000;stroke-width:1px;stroke-linecap:butt;stroke-linejoin:miter;stroke-opacity:1" />
    <path
       d="m 1.5,1047.3622 c 0,0 -0.78062205,-5.4557 1,-7 3.0218158,-2.6208 9.379193,-3.0218 12,0 1.544325,1.7806 -1,7 -1,7"
       id="path4478"
       style="fill:none;stroke:#000000;stroke-width:1px;stroke-linecap:butt;stroke-linejoin:miter;stroke-opacity:1" />
  </g>
</svg>
